<?xml version="1.0" encoding="UTF-8" standalone="no"?>
<!-- Created with Inkscape (http://www.inkscape.org/) -->

<svg
   xmlns:dc="http://purl.org/dc/elements/1.1/"
   xmlns:cc="http://creativecommons.org/ns#"
   xmlns:rdf="http://www.w3.org/1999/02/22-rdf-syntax-ns#"
   xmlns:svg="http://www.w3.org/2000/svg"
   xmlns="http://www.w3.org/2000/svg"
   xmlns:sodipodi="http://sodipodi.sourceforge.net/DTD/sodipodi-0.dtd"
   xmlns:inkscape="http://www.inkscape.org/namespaces/inkscape"
   width="500"
   height="500"
   viewBox="0 0 500.00001 500.00001"
   id="svg2"
   version="1.1"
   inkscape:version="0.91 r13725"
   sodipodi:docname="settings_icon.svg"
   inkscape:export-filename="/Users/kazuki_n/Developments/kodam_project/res/img/menu_bar_icon/settings_icon_v1.0.2.png"
   inkscape:export-xdpi="90"
   inkscape:export-ydpi="90">
  <defs
     id="defs4">
    <inkscape:path-effect
       effect="gears"
       id="path-effect4144"
       is_visible="true"
       teeth="12"
       phi="20" />
  </defs>
  <sodipodi:namedview
     id="base"
     pagecolor="#ffffff"
     bordercolor="#666666"
     borderopacity="1.0"
     inkscape:pageopacity="0.0"
     inkscape:pageshadow="2"
     inkscape:zoom="1.098"
     inkscape:cx="214.48087"
     inkscape:cy="249.08925"
     inkscape:document-units="px"
     inkscape:current-layer="layer4"
     showgrid="false"
     units="px"
     inkscape:window-width="1280"
     inkscape:window-height="751"
     inkscape:window-x="0"
     inkscape:window-y="1"
     inkscape:window-maximized="1" />
  <metadata
     id="metadata7">
    <rdf:RDF>
      <cc:Work
         rdf:about="">
        <dc:format>image/svg+xml</dc:format>
        <dc:type
           rdf:resource="http://purl.org/dc/dcmitype/StillImage" />
        <dc:title></dc:title>
      </cc:Work>
    </rdf:RDF>
  </metadata>
  <g
     inkscape:label="empty"
     inkscape:groupmode="layer"
     id="layer1"
     transform="translate(0,-552.36216)"
     style="display:none" />
  <g
     inkscape:groupmode="layer"
     id="layer2"
     inkscape:label="sheet"
     style="display:none">
    <rect
       style="fill:#ffff00;fill-opacity:1;stroke:#ffff00;stroke-width:11.23010254;stroke-miterlimit:4;stroke-dasharray:none;stroke-opacity:1"
       id="rect4137"
       width="488.7699"
       height="488.7699"
       x="5.6150513"
       y="5.6150484" />
  </g>
  <g
     inkscape:groupmode="layer"
     id="layer3"
     inkscape:label="outline"
     style="display:none">
    <path
       style="fill:none;fill-rule:evenodd;stroke:#000000;stroke-width:0.94324481;stroke-linecap:butt;stroke-linejoin:miter;stroke-miterlimit:4;stroke-dasharray:none;stroke-opacity:1"
       d="m 50.955419,278.43327 c 0,0 -19.304479,2.60192 -50.29067778,-18.36997 C 0.37463435,252.69757 0.41139262,245.32261 0.77490764,237.96014 31.968618,217.29817 51.246202,220.09239 51.246202,220.09239 l 22.467359,3.41372 c 2.070659,-13.62799 5.716853,-26.96943 10.865323,-39.75626 l -21.080606,-8.48786 c 0,0 -18.019131,-7.39891 -34.368019,-41.05421 3.431621,-6.52395 7.150938,-12.89248 11.146983,-19.0868 37.345535,-2.29695 52.6433,9.76171 52.6433,9.76171 l 17.750438,14.19006 c 8.60724,-10.76686 18.43566,-20.49779 29.28778,-28.99728 L 125.94635,92.184466 c 0,0 -11.90557,-15.417208 -9.23647,-52.737991 6.23385,-3.934101 12.63913,-7.58975 19.19697,-10.956169 33.49065,16.683556 40.70958,34.775545 40.70958,34.775545 l 8.2773,21.164167 c 12.83752,-5.020753 26.21464,-8.533777 39.8626,-10.468487 l -3.1896,-22.500272 c 0,0 -2.60192,-19.304479 18.36997,-50.2906778 7.36573,-0.29010685 14.74069,-0.25334858 22.10316,0.1101664 20.66197,31.1937104 17.86775,50.4712944 17.86775,50.4712944 l -3.41372,22.467359 c 13.62799,2.070659 26.96943,5.716853 39.75626,10.865323 l 8.48786,-21.080606 c 0,0 7.39891,-18.019131 41.05421,-34.368019 6.52395,3.431621 12.89248,7.150938 19.0868,11.146983 2.29695,37.345535 -9.76171,52.6433 -9.76171,52.6433 l -14.19006,17.750438 c 10.76686,8.60724 20.49779,18.43566 28.99728,29.28778 l 17.891,-14.01241 c 0,0 15.41721,-11.90557 52.738,-9.23647 3.9341,6.23385 7.58975,12.63913 10.95616,19.19697 -16.68355,33.49065 -34.77554,40.70958 -34.77554,40.70958 l -21.16417,8.2773 c 5.02076,12.83752 8.53378,26.21464 10.46849,39.8626 l 22.50027,-3.1896 c 0,0 19.30448,-2.60192 50.29068,18.36997 0.29011,7.36573 0.25335,14.74069 -0.11017,22.10316 -31.19371,20.66197 -50.47129,17.86775 -50.47129,17.86775 l -22.46736,-3.41372 c -2.07066,13.62799 -5.71685,26.96943 -10.86532,39.75626 l 21.0806,8.48786 c 0,0 18.01913,7.39891 34.36802,41.05421 -3.43162,6.52395 -7.15094,12.89248 -11.14698,19.0868 -37.34554,2.29695 -52.6433,-9.76171 -52.6433,-9.76171 l -17.75044,-14.19006 c -8.60724,10.76686 -18.43566,20.49779 -29.28778,28.99728 l 14.01241,17.891 c 0,0 11.90557,15.41721 9.23647,52.738 -6.23385,3.9341 -12.63913,7.58975 -19.19697,10.95616 -33.49065,-16.68355 -40.70958,-34.77554 -40.70958,-34.77554 l -8.2773,-21.16417 c -12.83752,5.02076 -26.21464,8.53378 -39.8626,10.46849 l 3.1896,22.50027 c 0,0 2.60192,19.30448 -18.36997,50.29068 -7.36573,0.29011 -14.74069,0.25335 -22.10316,-0.11017 -20.66197,-31.19371 -17.86775,-50.47129 -17.86775,-50.47129 l 3.41372,-22.46736 c -13.62799,-2.07066 -26.96943,-5.71685 -39.75626,-10.86532 l -8.48786,21.0806 c 0,0 -7.39891,18.01913 -41.05421,34.36802 -6.52395,-3.43162 -12.89248,-7.15094 -19.0868,-11.14698 -2.29695,-37.34554 9.76171,-52.6433 9.76171,-52.6433 l 14.19006,-17.75044 c -10.76686,-8.60724 -20.49779,-18.43566 -28.99728,-29.28778 l -17.891004,14.01241 c 0,0 -15.417208,11.90557 -52.737991,9.23647 -3.934101,-6.23385 -7.58975,-12.63913 -10.956169,-19.19697 16.683556,-33.49065 34.775545,-40.70958 34.775545,-40.70958 l 21.164167,-8.2773 c -5.020753,-12.83752 -8.533777,-26.21464 -10.468487,-39.8626 l -22.500272,3.1896"
       id="path4142"
       inkscape:connector-curvature="0"
       inkscape:path-effect="#path-effect4144"
       inkscape:original-d="m 99.857286,249.50584 149.889794,0.74708 0,-213.66468" />
    <circle
       style="fill:none;fill-opacity:1;stroke:#000000;stroke-width:0.83018261;stroke-miterlimit:4;stroke-dasharray:none;stroke-opacity:1"
       id="path4150"
       cx="249.66576"
       cy="250.33424"
       r="124.25067" />
  </g>
  <g
     inkscape:groupmode="layer"
     id="layer4"
     inkscape:label="incolor">
    <path
       style="fill:#55d400;fill-opacity:1;stroke:#55d400;stroke-width:23.854;stroke-miterlimit:4;stroke-dasharray:none;stroke-opacity:1"
       d="m 240.41896,12.663772 c -10.09045,16.038584 -19.82532,34.782196 -16.18339,54.347912 -0.0133,4.666933 2.90245,9.927015 0.90824,14.249209 -10.68038,2.959332 -21.77249,4.917144 -32.3042,8.633496 -2.3503,0.55063 -5.73802,2.82142 -5.73773,-1.46392 -4.57526,-11.461518 -8.4681,-24.061249 -18.6498,-31.940634 -8.24859,-7.201702 -17.35575,-14.190757 -27.60688,-17.935842 -5.66258,4.198444 -14.20135,5.773147 -17.61619,12.450452 -1.64163,9.590376 0.18658,19.552352 1.56352,29.105923 2.22703,14.152121 12.15399,24.937162 20.23219,36.099022 -10.00102,8.28853 -18.63383,18.05932 -28.03445,27.00002 -10.81056,-8.05302 -21.101031,-18.28805 -35.088065,-20.18002 -10.460354,-1.8322 -21.476481,-2.62009 -31.888051,-1.97354 -2.853478,6.44119 -8.850133,11.99291 -9.499869,19.21107 4.237316,10.49538 11.386061,19.84921 19.180811,28.0289 8.201679,9.85249 21.340073,13.08639 32.229845,18.172 -3.88075,12.27214 -7.400595,24.65304 -9.954832,37.2699 -12.103565,-0.40491 -24.322295,-5.17992 -36.284973,-0.92351 -11.93665,3.21692 -23.549323,8.73591 -33.470139,15.80568 0.320389,6.91925 -0.631977,14.17216 0.456659,20.88933 16.036859,10.02326 34.743721,20.19163 54.352627,16.39075 4.792458,-0.44376 10.100563,-1.82832 14.611396,-1.607 2.416172,12.70863 6.109843,25.23738 9.718861,37.53971 -13.96625,5.21945 -28.713949,10.96537 -37.968918,23.34481 -5.694534,7.3306 -11.12019,15.33485 -14.889806,23.65196 3.829598,6.19366 6.915938,13.21885 11.492874,18.70708 18.070303,-0.82929 38.365216,-0.1647 53.106,-12.50021 4.6352,-2.99263 9.07764,-7.74166 13.68677,-9.88074 8.00151,10.18387 17.73657,18.80701 27.02099,27.78231 -8.7925,10.76723 -18.8702,21.74524 -20.71264,36.14483 -1.73276,10.05539 -2.63057,20.63254 -2.02355,30.64335 6.10284,3.46098 11.9847,7.80168 18.4633,10.30212 12.35975,-5.70604 24.18687,-13.48587 33.14765,-23.82674 6.84613,-8.07362 9.56163,-19.09033 14.31092,-27.88073 12.35628,3.36099 24.55278,7.37561 37.1405,9.87789 -1.22675,13.58619 -5.13534,27.74911 0.33442,40.97773 3.75586,9.95682 7.94952,20.35168 14.70817,28.5052 7.01382,-0.48234 14.37588,0.25704 21.17947,-0.96047 8.64396,-14.23098 17.24558,-30.10201 16.71646,-47.22925 -0.64449,-6.9401 -1.88187,-13.99634 -2.7213,-20.80619 11.88983,-3.04138 24.06512,-5.366 35.69307,-9.511 3.28765,-1.57076 3.22428,4.24186 4.76011,6.12065 3.78831,10.39153 8.34428,20.96297 17.20642,28.07406 8.11044,7.16979 17.28116,13.6415 27.02607,18.04017 6.04499,-3.65744 13.0353,-6.35674 18.39199,-10.79424 0.55222,-18.50869 -0.17943,-38.71425 -12.22158,-53.9033 -2.85454,-4.41805 -7.29078,-8.40717 -9.49943,-12.98332 8.50306,-8.20308 17.56139,-15.95821 25.19012,-25.06965 1.38759,-2.68584 3.27324,-2.02672 5.02917,-0.10615 10.84908,8.66015 22.43122,17.94398 36.85867,19.10416 9.03326,0.91813 18.43447,1.78862 27.34014,1.16581 3.72182,-6.23037 8.1536,-12.45629 10.60841,-19.17034 -8.82381,-15.80212 -19.26517,-32.41894 -36.7034,-39.70236 -5.02229,-2.46496 -10.74973,-4.07673 -15.47628,-6.75309 3.65587,-12.37063 7.44872,-24.72987 9.9803,-37.41076 12.42956,1.24776 25.2359,5.29871 37.50376,0.80096 11.2562,-3.39542 22.60573,-8.16644 31.78449,-15.37767 -0.30367,-6.99022 0.60361,-14.29146 -0.44136,-21.09127 -13.86349,-8.93255 -29.59321,-16.99774 -46.44514,-17.07462 -7.47385,0.37687 -15.12768,2.28291 -22.34573,2.58614 -2.26442,-12.75166 -5.816,-25.37739 -9.61192,-37.63136 12.8571,-5.16939 27.0112,-9.60089 35.82822,-21.04546 6.75387,-7.89798 13.12305,-16.67308 16.93034,-26.24148 -3.78436,-5.98849 -6.5601,-12.98898 -10.96999,-18.34901 -17.58021,0.59672 -36.94456,-0.10582 -51.71114,11.1421 -5.3265,3.27676 -9.67984,8.41764 -15.34477,10.92152 -8.23369,-9.77155 -17.32814,-18.87106 -26.95986,-27.19348 9.01445,-11.75472 19.34292,-23.695131 21.21759,-39.005855 1.38536,-9.525759 1.44605,-19.519688 0.30481,-28.917585 -5.93031,-2.927379 -11.33672,-7.788883 -17.83518,-9.25681 -14.32863,6.509126 -28.0699,16.065925 -36.88924,29.328223 -3.89217,7.181297 -6.58814,15.142075 -9.91578,22.433546 -12.35049,-3.97608 -24.78035,-7.748586 -37.55129,-10.149393 1.12325,-12.20112 5.40173,-24.966575 0.93694,-37.120465 -3.15847,-11.535605 -8.543,-22.756776 -15.39556,-32.3404 -7.0025,0.312621 -14.408,-0.618493 -21.19986,0.459871 z M 250.019,131.95191 c 30.57031,-0.56285 60.70301,11.73005 82.52459,33.11409 24.39997,23.50013 37.92943,57.82618 35.48033,91.49655 -1.45704,46.13678 -33.88167,89.08198 -77.21595,104.48669 -20.75413,7.4085 -43.53583,9.13611 -65.15786,4.73817 -39.092,-7.80254 -72.2884,-37.20295 -86.34125,-74.38758 -17.15395,-43.65891 -4.16812,-96.58223 30.3518,-128.14381 21.61032,-20.26715 50.75559,-31.69107 80.35834,-31.30411 z"
       id="path4157"
       inkscape:connector-curvature="0" />
  </g>
</svg>
